<svg width="20" height="20" fill="none" xmlns="http://www.w3.org/2000/svg"><path d="M0 10.009a9.74 9.74 0 011.35-4.996A10.045 10.045 0 015.005 1.35 9.693 9.693 0 019.99 0c1.8 0 3.468.45 5.005 1.35a10.06 10.06 0 013.654 3.655A9.726 9.726 0 0120 10.008c0 1.8-.45 3.468-1.35 5.005a9.996 9.996 0 01-3.654 3.645A9.776 9.776 0 019.99 20c-1.8 0-3.465-.447-4.995-1.341a10.017 10.017 0 01-3.646-3.645A9.726 9.726 0 010 10.009zm8.55-6.535c1.669.204 3.07.942 4.204 2.215 1.134 1.272 1.701 2.766 1.701 4.482 0 1.596-.498 3.003-1.494 4.221a6.595 6.595 0 01-3.798 2.332c.384.048.66.072.828.072 1.872 0 3.474-.663 4.806-1.99 1.333-1.326 1.999-2.925 1.999-4.797 0-1.848-.666-3.426-1.998-4.734-1.333-1.309-2.935-1.963-4.807-1.963-.492 0-.972.054-1.44.162z" fill="#fff"/></svg>