<svg width="17" height="17" fill="none" xmlns="http://www.w3.org/2000/svg"><path d="M17 10h-2.18c-.17.7-.44 1.35-.81 1.93l1.54 1.54-2.1 2.1-1.54-1.54c-.58.36-1.23.63-1.91.79V17H7v-2.18c-.68-.16-1.33-.43-1.91-.79l-1.54 1.54-2.12-2.12 1.54-1.54c-.36-.58-.63-1.23-.79-1.91H0V7.03h2.17c.16-.7.44-1.35.8-1.94L1.43 3.55l2.1-2.1 1.54 1.54c.58-.37 1.24-.64 1.93-.81V0h3v2.18c.68.16 1.33.43 1.91.79l1.54-1.54 2.12 2.12-1.54 1.54c.36.59.64 1.24.8 1.94H17V10zm-8.5 1.5c1.66 0 3-1.34 3-3s-1.34-3-3-3-3 1.34-3 3 1.34 3 3 3z" fill="#fff"/></svg>