<svg width="30" height="30" fill="none" xmlns="http://www.w3.org/2000/svg"><circle cx="15" cy="15" r="15" fill="#000"/><g clip-path="url(#clip0)" fill="#fff"><path d="M20.725 6.086c-3.035 0-5.511 2.443-5.535 5.455l-3.446 4.919c-.962-.087-1.791.111-2.524.556l-4.72-1.9v5.19l2.791 1.117a4.138 4.138 0 004.03 3.241c2.137 0 3.908-1.634 4.103-3.715l5.306-3.86c3.044 0 5.52-2.456 5.52-5.503v-.001c0-3.032-2.477-5.5-5.525-5.5zM8.64 21.964c.494.189.995.396 1.49.59a2.404 2.404 0 003.142-1.33 2.39 2.39 0 00-1.345-3.12l-1.262-.507c1.88-.417 3.69.991 3.69 2.95 0 1.678-4.24 4.176-5.715 1.417zm12.089-6.692c-2.049 0-3.714-1.645-3.714-3.686 0-2.032 1.66-3.686 3.714-3.686 2.035 0 3.7 1.654 3.7 3.686a3.688 3.688 0 01-3.7 3.686z"/><path d="M20.74 8.629a2.955 2.955 0 00-2.96 2.95c0 1.63 1.32 2.95 2.96 2.95a2.958 2.958 0 002.96-2.95 2.958 2.958 0 00-2.96-2.95z"/></g><defs><clipPath id="clip0"><path fill="#fff" transform="translate(4.5 4.5)" d="M0 0h21.75v21.75H0z"/></clipPath></defs></svg>