<svg width="30" height="30" fill="none" xmlns="http://www.w3.org/2000/svg"><circle cx="15" cy="15" r="15" fill="#2F89CE"/><path d="M7.013 15.28l3.449 1.287 1.344 4.325c.058.292.41.35.643.175l1.929-1.578c.175-.175.467-.175.701 0l3.449 2.513c.234.176.584.059.643-.233l2.572-12.275c.058-.292-.234-.585-.527-.468L7.013 14.521c-.35.117-.35.643 0 .76zm4.618.644l6.78-4.15c.117-.059.234.117.117.175l-5.553 5.202c-.175.175-.35.41-.35.701l-.176 1.403c0 .175-.292.234-.35 0l-.702-2.572c-.176-.292-.059-.643.234-.76z" fill="#fff"/></svg>