<svg width="30" height="30" fill="none" xmlns="http://www.w3.org/2000/svg"><circle cx="15" cy="15" r="15" fill="#F40000"/><path d="M21.535 14.185c0-.291-.049-.63-.049-1.018a67.126 67.126 0 00-.145-1.115c-.097-.388-.242-.68-.533-.922a1.638 1.638 0 00-.922-.436c-1.115-.146-2.763-.194-4.994-.194-2.23 0-3.927.049-4.994.194a1.634 1.634 0 00-.92.436 1.935 1.935 0 00-.534.921c-.097.34-.146.68-.146 1.116-.048.388-.048.727-.048 1.018v2.23c0 .291.048.63.048 1.018.049.388.097.776.146 1.116.097.387.242.678.533.92.243.243.582.389.921.437 1.116.146 2.764.194 4.994.194s3.928-.049 4.994-.194c.34-.048.68-.194.922-.436.242-.243.436-.534.533-.921.097-.34.145-.68.145-1.116.049-.387.049-.727.049-1.018v-2.23zm-4.073 1.503l-3.83 2.376a.37.37 0 01-.243.097c-.097 0-.145 0-.242-.049a.509.509 0 01-.242-.436v-4.8a.51.51 0 01.242-.437.44.44 0 01.485 0l3.83 2.376c.146.097.242.243.242.388 0 .146-.096.388-.242.485z" fill="#fff"/></svg>