<svg xmlns="http://www.w3.org/2000/svg" width="400" height="400" viewBox="0, 0, 400,400"><g><path id="path0" d="M183.400 2.053 C 69.815 11.788,-12.261 115.054,3.837 227.975 C 19.283 336.333,119.820 411.638,228.375 396.163 C 336.733 380.717,412.038 280.180,396.563 171.625 C 381.763 67.806,287.854 -6.900,183.400 2.053 M163.012 96.600 C 164.559 99.680,166.148 103.053,166.544 104.096 C 167.469 106.535,167.228 106.457,171.721 105.782 C 188.010 103.335,212.001 103.337,228.305 105.786 C 232.852 106.469,232.255 106.865,234.603 101.600 C 237.151 95.887,239.630 91.163,240.195 90.947 C 240.452 90.848,242.358 91.147,244.431 91.610 C 246.504 92.073,249.100 92.618,250.200 92.820 C 257.589 94.179,277.138 100.156,285.200 103.521 C 285.750 103.751,287.820 104.612,289.800 105.435 C 299.237 109.358,297.673 107.540,310.586 129.600 C 315.523 138.035,323.797 156.707,328.310 169.600 C 338.758 199.445,343.561 240.455,340.148 270.675 L 339.914 272.751 334.657 276.480 C 331.766 278.531,328.590 280.730,327.600 281.367 C 326.610 282.004,325.316 282.854,324.725 283.256 C 318.067 287.783,301.344 296.652,292.293 300.455 C 281.144 305.141,268.860 309.501,268.440 308.922 C 263.954 302.727,259.700 295.840,255.368 287.762 L 253.567 284.403 254.884 283.818 C 255.608 283.496,257.550 282.662,259.200 281.964 C 265.210 279.422,277.600 272.966,277.600 272.376 C 277.600 272.220,277.105 271.773,276.500 271.384 C 275.895 270.995,274.535 269.959,273.478 269.083 L 271.557 267.489 267.478 269.300 C 223.894 288.658,176.720 288.657,132.511 269.298 L 128.422 267.507 126.511 269.092 C 125.460 269.963,124.105 270.995,123.500 271.384 C 122.895 271.773,122.400 272.225,122.400 272.387 C 122.400 273.095,134.776 279.329,145.125 283.834 L 146.450 284.411 144.762 287.505 C 140.222 295.827,139.180 297.566,134.969 303.846 C 133.068 306.681,131.462 309.055,131.401 309.122 C 131.280 309.254,124.988 307.163,119.800 305.268 C 100.202 298.108,80.645 287.668,63.344 275.130 C 59.666 272.465,59.963 273.218,59.348 265.000 C 58.913 259.187,59.049 234.286,59.550 228.200 C 61.329 206.562,67.315 179.566,73.927 163.356 C 74.366 162.280,75.362 159.780,76.141 157.800 C 76.919 155.820,77.933 153.348,78.394 152.307 C 78.854 151.266,79.216 150.316,79.197 150.197 C 79.179 150.078,79.692 148.950,80.338 147.690 C 80.984 146.431,82.731 142.880,84.221 139.800 C 85.710 136.720,87.304 133.660,87.763 133.000 C 88.222 132.340,88.520 131.800,88.426 131.800 C 88.195 131.800,92.612 123.977,95.704 118.908 C 101.888 108.772,101.549 109.214,103.967 108.122 C 120.032 100.866,134.950 96.023,154.200 91.815 C 160.384 90.464,159.761 90.125,163.012 96.600 M149.600 182.024 C 130.415 184.375,120.804 211.209,132.887 228.688 C 145.482 246.908,171.067 241.916,177.412 220.000 C 178.900 214.860,178.885 205.127,177.383 201.000 C 173.417 190.107,165.487 183.119,155.800 181.982 C 154.040 181.775,152.510 181.628,152.400 181.656 C 152.290 181.683,151.030 181.849,149.600 182.024 M243.600 182.024 C 224.441 184.372,214.783 210.895,226.674 228.503 C 238.434 245.916,262.427 242.782,270.339 222.800 C 272.654 216.954,273.127 206.269,271.295 201.200 C 269.741 196.898,269.389 196.168,267.544 193.400 C 262.813 186.304,251.964 180.278,246.400 181.656 C 246.290 181.683,245.030 181.849,243.600 182.024" fill="#fff"></path></g></svg>