<svg id="svg" xmlns="http://www.w3.org/2000/svg" xmlns:xlink="http://www.w3.org/1999/xlink" width="400" height="400" viewBox="0, 0, 400,400"><g id="svgg"><path id="path0" d="M169.000 18.028 C 22.519 43.955,-35.389 221.714,67.916 328.327 C 172.806 436.577,356.557 379.323,382.007 230.461 C 403.187 106.568,292.492 -3.829,169.000 18.028 M215.480 82.981 C 218.101 85.444,222.445 85.493,249.183 83.359 L 256.867 82.746 258.433 86.495 C 260.303 90.970,260.388 93.054,258.839 96.453 L 257.679 99.000 238.089 99.032 C 212.227 99.074,214.222 97.087,214.767 122.250 L 215.000 133.000 218.800 133.000 C 224.291 133.000,225.000 134.224,225.000 143.700 L 225.000 152.000 227.800 152.000 C 231.592 152.000,233.000 153.679,233.000 158.200 C 233.000 160.911,233.430 162.000,234.500 162.000 C 235.530 162.000,236.000 163.033,236.000 165.300 C 236.000 167.115,236.435 169.035,236.966 169.566 C 237.497 170.097,238.140 173.000,238.393 176.016 C 239.539 189.653,249.116 200.726,264.000 205.621 C 266.475 206.435,269.400 207.517,270.500 208.025 C 271.600 208.533,275.200 209.916,278.500 211.099 C 286.710 214.041,294.089 221.665,299.768 233.074 C 303.860 241.295,304.158 241.630,307.011 241.212 C 316.597 239.805,322.207 244.998,325.684 258.500 C 325.967 259.600,326.893 262.052,327.741 263.950 C 332.119 273.743,299.354 288.000,272.471 288.000 C 259.655 288.000,260.722 288.627,253.747 277.000 C 246.223 264.459,246.769 260.959,257.000 256.144 C 261.223 254.156,262.159 250.359,259.107 247.597 C 257.183 245.855,256.809 245.920,247.310 249.649 L 237.500 253.500 207.905 253.500 C 187.300 253.500,177.883 253.155,176.905 252.364 C 167.946 245.118,143.594 242.499,131.500 247.481 C 127.098 249.294,123.622 249.959,118.450 249.976 C 110.915 250.002,109.000 250.952,109.000 254.665 C 109.000 259.749,99.752 260.691,94.945 256.098 C 92.031 253.313,91.530 253.196,82.577 253.227 C 64.176 253.289,59.000 246.923,59.000 224.230 C 59.000 202.077,63.899 200.046,117.500 199.979 L 149.500 199.939 155.129 196.709 C 164.497 191.333,179.000 168.518,179.000 159.157 C 179.000 154.418,179.946 153.000,183.107 153.000 L 186.000 153.000 186.000 144.122 C 186.000 134.961,187.169 132.084,190.390 133.319 C 194.444 134.875,195.261 132.005,194.842 117.682 C 194.305 99.275,195.779 100.411,172.968 100.828 L 155.010 101.156 153.957 98.386 C 153.378 96.863,153.038 93.790,153.202 91.558 L 153.500 87.500 173.107 86.000 C 186.393 84.984,193.246 84.056,194.363 83.122 C 198.862 79.365,211.540 79.280,215.480 82.981 " stroke="none" fill="#fff" fill-rule="evenodd"></path></g></svg>